# xmcd CD database file
#
# Track frame offsets:
#	150
#	20981
#	36828
#	55909
#	98372
#	122539
#	144031
#	169630
#	198705
#	211216
#	237807
#	260619
#	302808
#	326671
#
# Disc length: 4761 seconds
#
# Revision: 1
# Processed by: cddbd v1.5.2PL0 Copyright (c) Steve Scherf et al.
# Submitted via: CDex 1.70beta2
#
DISCID=be12970e
DTITLE=Maurenbrecher, Wester, Nussbaumer - The Randy Newman Projekt
DYEAR=2005
DGENRE=Blues
TTITLE0=Lonley at the top
TTITLE1=Birmingham
TTITLE2=Marie
TTITLE3=Sail away
TTITLE4=My life is good
TTITLE5=Bad news from home
TTITLE6=Louisina 1927
TTITLE7=Falling in love
TTITLE8=Political Science
TTITLE9=Follow the the flag
TTITLE10=Jolly Coppers on parade
TTITLE11=Marlen - Suzanne 
TTITLE12=It's money that I love
TTITLE13=I want you to hurt like I do
EXTD=YEAR: 2005
EXTT0=
EXTT1=
EXTT2=
EXTT3=
EXTT4=
EXTT5=
EXTT6=
EXTT7=
EXTT8=
EXTT9=
EXTT10=
EXTT11=
EXTT12=
EXTT13=
PLAYORDER=
